# xmcd
#
# Track frame offsets:
#	150
#	11960
#	23680
#	36849
#	48304
#	64758
#	77989
#	91384
#	103535
#	116676
#	130605
#	143832
#	159020
#	172096
#	185094
#	199815
#	214385
#	227962
#	241486
#	252433
#
# Disc length: 3543 seconds
#
# Revision: 1
# Processed by: cddbd v1.5.2PL0 Copyright (c) Steve Scherf et al.
# Submitted via: audiograbber 1.83.01
#
DISCID=1d0dd514
DTITLE=Djang Reinhardt - Tiger Rag [CD 10)
DYEAR=1900
DGENRE=Swing
TTITLE0=Dinah
TTITLE1=Tiger Rag
TTITLE2=Lady be good
TTITLE3=I saw Stars
TTITLE4=Lilly Belle 05.June
TTITLE5=Sweet Sue, just you
TTITLE6=I'm confessin' that I love you
TTITLE7=The Continental
TTITLE8=Blue Drag
TTITLE9=Swanee River
TTITLE10=Ton doux sourie
TTITLE11=Ultrafox
TTITLE12=Avalon
TTITLE13=Smoke Rings
TTITLE14=Clouds
TTITLE15=Believe it, beloved
TTITLE16=Chasing Shadows
TTITLE17=I've had my Moments
TTITLE18=Some of these Days
TTITLE19=Djangology
EXTD=
EXTT0=
EXTT1=
EXTT2=
EXTT3=
EXTT4=
EXTT5=
EXTT6=
EXTT7=
EXTT8=
EXTT9=
EXTT10=
EXTT11=
EXTT12=
EXTT13=
EXTT14=
EXTT15=
EXTT16=
EXTT17=
EXTT18=
EXTT19=
PLAYORDER=
